<svg xmlns="http://www.w3.org/2000/svg" width="64" height="64" viewBox="0 0 4608 4608">
	<clipPath id="clip">
		<rect width="36" height="36" rx="9" ry="9" transform="translate(504 504) scale(100 100)"/>
	</clipPath>
	<rect width="36" height="36" rx="9" ry="9" fill="#ccffff" transform="translate(504 504) scale(100 100)"/>
	<g clip-path="url(#clip)">
		<g transform="translate(-576 576) scale(1.25 1.25)">
			<g transform="translate(4104 504) scale(-100 100)">
				<path fill="#A6D388" d="M6.195 14.044c-1.895-1.62 4.242-5.004 7.798-6.138-.251 1.072-5.064 8.475-7.798 6.138zm19.344-9.658c.964-2.299 6.06 2.512 8.225 5.55-1.096.089-9.615-2.233-8.225-5.55z"/>
				<path fill="#5C913B" d="M3.083 35.625c-.829 0-1.5-.672-1.5-1.5 0-.192-.005-.438-.011-.734C1.486 29.226 1.513 16.86 10 2.583c.424-.712 1.056-1.254 1.767-.831.712.423.323 1.369-.1 2.081C3.618 17.372 4.49 29.376 4.571 33.328c.007.322.012.589.012.797 0 .828-.671 1.5-1.5 1.5z"/>
				<path fill="#3E721D" d="M2.082 33.041c-.787 0-1.448-.613-1.496-1.41-.05-.827.58-1.537 1.407-1.587l2.083-.125c.825-.06 1.538.58 1.587 1.407.05.827-.58 1.537-1.407 1.587l-2.083.125c-.03.002-.061.003-.091.003z"/>
				<path fill="#5C913B" d="M7.71 35.583c-.095 0-.19-.009-.287-.027-.813-.158-1.345-.945-1.187-1.759.035-.18.078-.448.132-.793C9.768 11.71 19.884 4.735 28.167 2.167c.799-.245 2.104-.359 2.349.431.245.791-.6 1.282-1.391 1.527-7.472 2.317-16.638 9.579-19.794 29.352-.062.388-.111.689-.15.892-.139.717-.767 1.214-1.471 1.214z"/>
				<path fill="#3E721D" d="M9.916 8.625c-.199 0-.4-.04-.594-.123l-2.125-.917c-.76-.328-1.111-1.21-.783-1.971.328-.762 1.211-1.111 1.972-.783l2.125.916c.761.328 1.111 1.211.783 1.972-.245.567-.797.906-1.378.906zM5.459 20.916c-.125 0-.251-.016-.377-.048l-2.25-.583c-.802-.208-1.283-1.026-1.076-1.829.208-.802 1.025-1.285 1.829-1.076l2.25.583c.802.208 1.283 1.026 1.076 1.828-.176.677-.785 1.125-1.452 1.125zM22.668 8.75c-.481 0-.955-.232-1.245-.662l-1.292-1.916c-.463-.687-.281-1.619.405-2.082.687-.462 1.619-.282 2.083.405l1.292 1.917c.463.687.281 1.619-.405 2.082-.258.173-.549.256-.838.256zm-8.003 9.542c-.235 0-.473-.056-.695-.172l-2.542-1.333c-.734-.385-1.017-1.292-.631-2.025.385-.733 1.292-1.017 2.025-.631l2.542 1.333c.734.385 1.017 1.292.631 2.025-.268.511-.79.803-1.33.803zM9.917 29.958c-.127 0-.255-.016-.384-.05l-2.208-.583c-.801-.211-1.279-1.032-1.067-1.833.212-.801 1.035-1.279 1.833-1.067l2.208.583c.801.211 1.279 1.032 1.067 1.833-.177.673-.784 1.117-1.449 1.117z"/>
				<path fill="#A6D388" d="M4.958 15.208c-2.252 1.068-2.834-5.917-2.417-9.625.876.667 5.667 8.084 2.417 9.625z"/>
			</g>
			<g transform="translate(504 504) scale(100 100)">
				<path fill="#677880" d="M17.68 22s1.937 7.873 1.187 9.373c-2.373 4.746-1.187 4.627 0 4.627h2.373c2.373 0-1.187-14-1.187-14H17.68zM5.255 19.387s-.436 7.993-1.187 9.493C1.695 33.626 1.695 36 2.882 36h2.373c1.186 0 1.187-4.154 1.187-5.34 0-1.187 1.187-8.603 1.187-8.603l-2.374-2.67z"/>
				<path fill="#a1afb4" d="M12.374 5.251c-2.068.017-4.209-.435-5.523 2.099-1.404 2.709-2.065 8.579.776 9.664 2.479.947 7.933-1.187 13.866 1.187 5.933 2.373 8.306 16.612 13.015 16.63 1.224.005 1.206 1.123.001 1.132-5.914.045-8.509-5.897-9.509-5.897 0 0 1 5.934 0 5.934h-4c-1 0 0-3.081 0-4.268v-1.667s-1.593 1.218-5.936 1.218C11.781 31.284 9 30.066 9 30.066S10 36 9 36H5.255c-1.678 0 .166-4.013 0-5.934-.102-1.182-.51-4.757-1.224-5.933-1.726-2.847-2.763-11.521-1.929-15.285.781-3.526 3.122-6.633 4.675-7.51C8.296.479 9.64-.162 12.968.373c1.775.285 3.591 2.922 2.89 4.274-.421.81-1.94.591-3.484.604z"/>
				<path d="M12.967 2.181c0 .328-.265.593-.593.593-.328 0-.593-.265-.593-.593s.265-.593.593-.593c.328 0 .593.266.593.593z"/>
				<path d="M10.218 18.485c.094.304-.076.626-.38.72-.304.094-.626-.076-.72-.38-.094-.304.076-.626.38-.72.304-.094.626.076.72.38zm3.874 1.248c.134.433-.108.892-.54 1.025-.432.134-.892-.108-1.026-.541-.134-.432.108-.892.541-1.025.432-.133.891.109 1.025.541zm-1.625-1.426c.071.23-.057.474-.288.545-.23.071-.474-.058-.545-.288-.071-.23.058-.474.288-.545.23-.071.474.058.545.288zm2.458-.331c.067.218-.054.448-.272.516-.217.067-.448-.054-.516-.272-.067-.218.054-.448.272-.516.218-.067.449.055.516.272zm2.843.35c.125.402-.101.829-.503.954s-.829-.1-.954-.503c-.125-.402.101-.829.503-.954.403-.125.83.101.954.503zm4.753 1.979c.08.258-.064.531-.322.61-.257.08-.531-.064-.61-.322-.08-.257.064-.531.322-.61.258-.08.531.065.61.322zm-5.854 0c.08.258-.064.531-.322.61-.257.08-.531-.064-.61-.322-.08-.257.064-.531.322-.61.257-.08.531.065.61.322zm4.218-1.306c.08.257-.064.531-.322.61-.257.08-.531-.064-.61-.322s.064-.531.322-.61c.257-.08.531.065.61.322zm-1.501.199c.118.381-.095.785-.476.903s-.785-.095-.903-.476.095-.785.476-.903.785.095.903.476z" fill="#677880"/>
			</g>
			<g transform="translate(504 1404) scale(75 75)">
				<path fill="#A6D388" d="M6.195 14.044c-1.895-1.62 4.242-5.004 7.798-6.138-.251 1.072-5.064 8.475-7.798 6.138zm19.344-9.658c.964-2.299 6.06 2.512 8.225 5.55-1.096.089-9.615-2.233-8.225-5.55z"/>
				<path fill="#5C913B" d="M3.083 35.625c-.829 0-1.5-.672-1.5-1.5 0-.192-.005-.438-.011-.734C1.486 29.226 1.513 16.86 10 2.583c.424-.712 1.056-1.254 1.767-.831.712.423.323 1.369-.1 2.081C3.618 17.372 4.49 29.376 4.571 33.328c.007.322.012.589.012.797 0 .828-.671 1.5-1.5 1.5z"/>
				<path fill="#3E721D" d="M2.082 33.041c-.787 0-1.448-.613-1.496-1.41-.05-.827.58-1.537 1.407-1.587l2.083-.125c.825-.06 1.538.58 1.587 1.407.05.827-.58 1.537-1.407 1.587l-2.083.125c-.03.002-.061.003-.091.003z"/>
				<path fill="#5C913B" d="M7.71 35.583c-.095 0-.19-.009-.287-.027-.813-.158-1.345-.945-1.187-1.759.035-.18.078-.448.132-.793C9.768 11.71 19.884 4.735 28.167 2.167c.799-.245 2.104-.359 2.349.431.245.791-.6 1.282-1.391 1.527-7.472 2.317-16.638 9.579-19.794 29.352-.062.388-.111.689-.15.892-.139.717-.767 1.214-1.471 1.214z"/>
				<path fill="#3E721D" d="M9.916 8.625c-.199 0-.4-.04-.594-.123l-2.125-.917c-.76-.328-1.111-1.21-.783-1.971.328-.762 1.211-1.111 1.972-.783l2.125.916c.761.328 1.111 1.211.783 1.972-.245.567-.797.906-1.378.906zM5.459 20.916c-.125 0-.251-.016-.377-.048l-2.25-.583c-.802-.208-1.283-1.026-1.076-1.829.208-.802 1.025-1.285 1.829-1.076l2.25.583c.802.208 1.283 1.026 1.076 1.828-.176.677-.785 1.125-1.452 1.125zM22.668 8.75c-.481 0-.955-.232-1.245-.662l-1.292-1.916c-.463-.687-.281-1.619.405-2.082.687-.462 1.619-.282 2.083.405l1.292 1.917c.463.687.281 1.619-.405 2.082-.258.173-.549.256-.838.256zm-8.003 9.542c-.235 0-.473-.056-.695-.172l-2.542-1.333c-.734-.385-1.017-1.292-.631-2.025.385-.733 1.292-1.017 2.025-.631l2.542 1.333c.734.385 1.017 1.292.631 2.025-.268.511-.79.803-1.33.803zM9.917 29.958c-.127 0-.255-.016-.384-.05l-2.208-.583c-.801-.211-1.279-1.032-1.067-1.833.212-.801 1.035-1.279 1.833-1.067l2.208.583c.801.211 1.279 1.032 1.067 1.833-.177.673-.784 1.117-1.449 1.117z"/>
				<path fill="#A6D388" d="M4.958 15.208c-2.252 1.068-2.834-5.917-2.417-9.625.876.667 5.667 8.084 2.417 9.625z"/>
			</g>
			<g transform="translate(4104 1404) scale(-75 75)">
				<path fill="#662113" d="M13.5 23.489s-1.103 1.377-.737 3.268c.225 1.165 1.315 2.367 2.775 2.592.488.075.727 1.028.592 1.728-.153.792-.699 1.902-.999 2.465-.3.563-.89.562-1.615 1.213-.507.455-.678 1.245.186 1.245h3.821c.766 0 1.255-.469 1.418-1.241.226-1.071 1.093-5.148.846-5.935-.177-.564-.777-1.014-1.165-2.104-.286-.807.378-2.968.378-2.968l-5.5-.263zm-10.96-.607s.797-.724 1.344-.937c.547-.213 2.554-.058 3.065-.164.511-.107 1.363-.97 1.363-.97s2.144.835 2.166 1.04c.023.206-1.44 1.618-1.761 1.986-.321.367-2.316-.537-2.91-.537-.594 0-1.842.533-2.281.783-.44.249-.511-.131-.261-.404 0 0-.402.491-.539.311-.138-.18.231-.572.231-.572s-.345.439-.535.297-.194-.457.118-.833zM14.415 6.697c-.233.62-.831 1.637.355 1.72s.021 1.248-1.031 1.323c-1.052.075-4.47-1.39-4.095-2.254.376-.864 1.88-1.803 3.044-1.578 1.164.226 1.727.789 1.727.789z"/>
				<path fill="#F4900C" d="M20.812 5.453c-.078.578-.234 1-.344.984-.109-.016-.375-1.062-.375-1.062s-.203 1.156-.344 1.141c-.141-.016-.281-1.062-.281-1.062s-.234 1.063-.391 1.063c-.156 0-.359-1.063-.359-1.063s-.17 1.052-.295 1.067c-.125.016-.502-.959-.502-.959s-.219.986-.328.986c-.109 0-.422-.986-.422-.986s-.188.97-.281.97c-.094 0-.438-.97-.438-.97s-.138 1.041-.234 1.064c-.256.062-.72-.891-.72-.891s.218 1.06.079 1.079c-.234.031-.984-.735-.984-.735s.953-.953 1.719-1.109 4.016-.781 4.391-.641.109 1.124.109 1.124zm-.636 2.742c-.137-.567-.336-.97-.444-.944-.107.027-.132 1.003-.132 1.003s-.453-1.037-.591-1.007c-.138.03-.061 1.075-.061 1.075s-.452-1.022-.607-1.005c-.155.016-.092 1.078-.092 1.078s-.522-1.093-.648-1.095c-.126-.003-.141 1.067-.141 1.067s-.388-1.013-.497-1.001c-.109.011-.231 1.108-.231 1.108s-.29-.975-.383-.966c-.093.01-.256 1.016-.256 1.016s-.293-.865-.389-.886c-.096-.021-.22.903-.22.903s-.29-.682-.421-.732c-.131-.049-.215.879-.215.879s.125.377.903.453c.778.076 4.075.363 4.433.184.358-.179-.008-1.13-.008-1.13z"/>
				<path fill="#AB7E59" d="M11.035 7.486c.114-.683 2.141.338 2.554.225.413-.113 2.066-1.766 2.517-1.803s4.47-.113 4.921-.338c.451-.225.188-1.991-.225-2.479-.413-.488-1.878-1.578-3.606-1.766-1.728-.188-2.93-.225-3.494-.526-.564-.301-1.803-.413-2.667 0-.865.414-3.945.902-5.222 2.179-1.277 1.277-2.742 2.968-3.08 5.71-.338 2.742.516 4.573 1.052 5.582.394.742 1.503 3.509 1.766 4.598s1.846 4.978 4.934 5.879c3.088.902 5.359 2.648 8.176 3.099 3.208.513 9.091-.188 12.096-2.066 3.005-1.878 4.47-3.794 4.47-6.311s-1.615-5.259-3.869-5.334c-2.254-.075-.789.676-.113.827.676.15 1.991 1.766 1.69 3.193-.3 1.427-.902 2.517-2.517 2.554-1.615.038-3.306-1.765-4.207-2.968-.902-1.202-4.959-3.339-6.875-3.454-1.916-.115-5.898-.115-6.386-1.317-.488-1.202-.376-1.803-.038-1.953.338-.15 2.216-.563 3.531-.601 1.315-.037 3.644-.376 3.944-.826.301-.451.225-1.39-.113-1.427-.338-.038-2.442.188-3.043.188s-.939-.488-1.578-.301c-.639.188-1.803.902-2.292.826-.486-.075-2.364-1.164-2.326-1.39z"/>
				<path fill="#8B5E3C" d="M26.952 26.253c-2.693.388-7.845-.466-9.358-.982-1.512-.516-4.616-1.318-6.801-1.782-2.186-.463-3.884-2.298-5.084-4.098.519 1.484 2.069 4.567 4.775 5.357 3.088.902 5.359 2.648 8.176 3.099 3.208.513 9.091-.188 12.096-2.066 1.09-.682 1.972-1.369 2.66-2.087-.946.708-3.785 2.173-6.464 2.559zM12.816 1.568c1.336.208.204.909 2.683.904 0 0-1.872 1-2.624 1-1.297 0-1.568-.644-1.567-1.182 0-.484.809-.831 1.508-.722z"/>
				<circle fill="#292F33" cx="12.5" cy="2.5" r=".5"/>
				<path fill="#AB7E59" d="M17.132 24.766s.424 1.503 1.796 2.855 4.121 1.653 4.609 1.728c.488.075 1.017.263 1.243.939.225.676.65 2.691.349 3.254-.301.563-1.548.878-1.887 1.517-.189.358-.682.941.182.941H28c.766 0 .953-.603.953-1.391 0-.789.263-2.066-.225-3.456-.488-1.39-.676-3.494-1.503-3.719-.827-.225-2.141-2.479-2.141-2.479l-7.952-.189zM4.355 26.748s.559-.996 1.037-1.394c.478-.398 2.55-.916 3.028-1.195.478-.279 1.045-1.434 1.045-1.434s2.437.12 2.529.319c.092.199-.905 2.112-1.104 2.59-.199.478-2.51.239-3.108.438-.598.199-1.673 1.156-2.032 1.554-.359.398-.558.04-.398-.319 0 0-.239.629-.438.494s.04-.653.04-.653-.199.558-.438.478c-.24-.081-.349-.395-.161-.878z"/>
				<path fill="#8B5E3C" d="M15.71 15.663c0 .318-.258.576-.576.576-.318 0-.576-.258-.576-.576 0-.318.258-.576.576-.576.319 0 .576.258.576.576zm3.061 1.264c0 .453-.367.82-.82.82-.453 0-.82-.367-.82-.82s.367-.82.82-.82c.453 0 .82.367.82.82zm-1.639-1.672c0 .241-.195.436-.436.436s-.436-.195-.436-.436.195-.436.436-.436.436.195.436.436zm2.955.24c0 .228-.184.412-.412.412-.228 0-.412-.185-.412-.412 0-.228.185-.412.412-.412.227-.001.412.184.412.412zm2.613 1.174c0 .421-.341.762-.762.762s-.762-.341-.762-.762.341-.762.762-.762c.42 0 .762.341.762.762z"/>
				<circle fill="#8B5E3C" cx="25.107" cy="20.322" r=".488"/>
				<circle fill="#8B5E3C" cx="20.575" cy="18.234" r=".488"/>
				<circle fill="#8B5E3C" cx="24.99" cy="18.234" r=".488"/>
				<circle fill="#8B5E3C" cx="23.263" cy="17.98" r=".722"/>
			</g>
			<g transform="translate(3456 2304) scale(-50 50)">
				<path fill="#A6D388" d="M6.195 14.044c-1.895-1.62 4.242-5.004 7.798-6.138-.251 1.072-5.064 8.475-7.798 6.138zm19.344-9.658c.964-2.299 6.06 2.512 8.225 5.55-1.096.089-9.615-2.233-8.225-5.55z"/>
				<path fill="#5C913B" d="M3.083 35.625c-.829 0-1.5-.672-1.5-1.5 0-.192-.005-.438-.011-.734C1.486 29.226 1.513 16.86 10 2.583c.424-.712 1.056-1.254 1.767-.831.712.423.323 1.369-.1 2.081C3.618 17.372 4.49 29.376 4.571 33.328c.007.322.012.589.012.797 0 .828-.671 1.5-1.5 1.5z"/>
				<path fill="#3E721D" d="M2.082 33.041c-.787 0-1.448-.613-1.496-1.41-.05-.827.58-1.537 1.407-1.587l2.083-.125c.825-.06 1.538.58 1.587 1.407.05.827-.58 1.537-1.407 1.587l-2.083.125c-.03.002-.061.003-.091.003z"/>
				<path fill="#5C913B" d="M7.71 35.583c-.095 0-.19-.009-.287-.027-.813-.158-1.345-.945-1.187-1.759.035-.18.078-.448.132-.793C9.768 11.71 19.884 4.735 28.167 2.167c.799-.245 2.104-.359 2.349.431.245.791-.6 1.282-1.391 1.527-7.472 2.317-16.638 9.579-19.794 29.352-.062.388-.111.689-.15.892-.139.717-.767 1.214-1.471 1.214z"/>
				<path fill="#3E721D" d="M9.916 8.625c-.199 0-.4-.04-.594-.123l-2.125-.917c-.76-.328-1.111-1.21-.783-1.971.328-.762 1.211-1.111 1.972-.783l2.125.916c.761.328 1.111 1.211.783 1.972-.245.567-.797.906-1.378.906zM5.459 20.916c-.125 0-.251-.016-.377-.048l-2.25-.583c-.802-.208-1.283-1.026-1.076-1.829.208-.802 1.025-1.285 1.829-1.076l2.25.583c.802.208 1.283 1.026 1.076 1.828-.176.677-.785 1.125-1.452 1.125zM22.668 8.75c-.481 0-.955-.232-1.245-.662l-1.292-1.916c-.463-.687-.281-1.619.405-2.082.687-.462 1.619-.282 2.083.405l1.292 1.917c.463.687.281 1.619-.405 2.082-.258.173-.549.256-.838.256zm-8.003 9.542c-.235 0-.473-.056-.695-.172l-2.542-1.333c-.734-.385-1.017-1.292-.631-2.025.385-.733 1.292-1.017 2.025-.631l2.542 1.333c.734.385 1.017 1.292.631 2.025-.268.511-.79.803-1.33.803zM9.917 29.958c-.127 0-.255-.016-.384-.05l-2.208-.583c-.801-.211-1.279-1.032-1.067-1.833.212-.801 1.035-1.279 1.833-1.067l2.208.583c.801.211 1.279 1.032 1.067 1.833-.177.673-.784 1.117-1.449 1.117z"/>
				<path fill="#A6D388" d="M4.958 15.208c-2.252 1.068-2.834-5.917-2.417-9.625.876.667 5.667 8.084 2.417 9.625z"/>
			</g>
		</g>
	</g>
	<rect width="36" height="36" rx="9" ry="9" fill="none" stroke="#333333" stroke-width="2.25" transform="translate(504 504) scale(100 100)"/>
</svg>
