<?xml version="1.0" encoding="UTF-8" standalone="no"?><svg xmlns="http://www.w3.org/2000/svg" xmlns:xlink="http://www.w3.org/1999/xlink" contentScriptType="application/ecmascript" contentStyleType="text/css" height="600px" preserveAspectRatio="none" style="width:364px;height:600px;" version="1.1" viewBox="0 0 364 600" width="364px" zoomAndPan="magnify">
    <defs>
        <filter height="300%" id="fwsci0hej8xk7" width="300%" x="-1" y="-1">
            <feGaussianBlur result="blurOut" stdDeviation="2.0" />
            <feColorMatrix in="blurOut" result="blurOut2" type="matrix" values="0 0 0 0 0 0 0 0 0 0 0 0 0 0 0 0 0 0 .4 0" />
            <feOffset dx="4.0" dy="4.0" in="blurOut2" result="blurOut3" />
            <feBlend in="SourceGraphic" in2="blurOut3" mode="normal" />
        </filter>
    </defs>
    <g>
        <!--MD5=[1b1562314ef50edf921bad0cd204186a]
class World-->
        <rect fill="#FEFECE" filter="url(#fwsci0hej8xk7)" height="48" id="World" style="stroke: #A80036; stroke-width: 1.5;" width="64" x="91.5" y="8" />
        <ellipse cx="106.5" cy="24" fill="#ADD1B2" rx="11" ry="11" style="stroke: #A80036; stroke-width: 1.0;" />
        <path d="M109.2656,19.875 Q109.4219,19.6563 109.6094,19.5469 Q109.7969,19.4375 110.0156,19.4375 Q110.3906,19.4375 110.625,19.6953 Q110.8594,19.9531 110.8594,20.5625 L110.8594,22.0156 Q110.8594,22.625 110.625,22.8906 Q110.3906,23.1563 110.0156,23.1563 Q109.6719,23.1563 109.4688,22.9531 Q109.2656,22.7656 109.1563,22.25 Q109.1094,21.8906 108.9219,21.7031 Q108.5938,21.3281 107.9844,21.1094 Q107.375,20.8906 106.75,20.8906 Q105.9844,20.8906 105.3516,21.2188 Q104.7188,21.5469 104.2266,22.2969 Q103.7344,23.0469 103.7344,24.0781 L103.7344,25.1719 Q103.7344,26.4063 104.625,27.2266 Q105.5156,28.0469 107.1094,28.0469 Q108.0469,28.0469 108.7031,27.7969 Q109.0938,27.6406 109.5156,27.2031 Q109.7813,26.9375 109.9297,26.8594 Q110.0781,26.7813 110.2813,26.7813 Q110.6094,26.7813 110.8672,27.0391 Q111.125,27.2969 111.125,27.6406 Q111.125,27.9844 110.7813,28.3906 Q110.2813,28.9688 109.4844,29.2969 Q108.4063,29.75 107.1094,29.75 Q105.5938,29.75 104.3906,29.125 Q103.4063,28.625 102.7188,27.5547 Q102.0313,26.4844 102.0313,25.2031 L102.0313,24.0469 Q102.0313,22.7188 102.6484,21.5703 Q103.2656,20.4219 104.3594,19.8047 Q105.4531,19.1875 106.6875,19.1875 Q107.4219,19.1875 108.0703,19.3516 Q108.7188,19.5156 109.2656,19.875 Z " /><text fill="#000000" font-family="sans-serif" font-size="12" lengthAdjust="spacingAndGlyphs" textLength="32" x="120.5" y="28.9102">World</text>
        <line style="stroke: #A80036; stroke-width: 1.5;" x1="92.5" x2="154.5" y1="40" y2="40" />
        <line style="stroke: #A80036; stroke-width: 1.5;" x1="92.5" x2="154.5" y1="48" y2="48" />
        <!--MD5=[0b747b16fd15de0ba6a1fc1f13282ea0]
class Dino-->
        <rect fill="#FEFECE" filter="url(#fwsci0hej8xk7)" height="186.3594" id="Dino" style="stroke: #A80036; stroke-width: 1.5;" width="111" x="6" y="116" />
        <ellipse cx="44.85" cy="132" fill="#ADD1B2" rx="11" ry="11" style="stroke: #A80036; stroke-width: 1.0;" />
        <path d="M47.6156,127.875 Q47.7719,127.6563 47.9594,127.5469 Q48.1469,127.4375 48.3656,127.4375 Q48.7406,127.4375 48.975,127.6953 Q49.2094,127.9531 49.2094,128.5625 L49.2094,130.0156 Q49.2094,130.625 48.975,130.8906 Q48.7406,131.1563 48.3656,131.1563 Q48.0219,131.1563 47.8188,130.9531 Q47.6156,130.7656 47.5063,130.25 Q47.4594,129.8906 47.2719,129.7031 Q46.9438,129.3281 46.3344,129.1094 Q45.725,128.8906 45.1,128.8906 Q44.3344,128.8906 43.7016,129.2188 Q43.0688,129.5469 42.5766,130.2969 Q42.0844,131.0469 42.0844,132.0781 L42.0844,133.1719 Q42.0844,134.4063 42.975,135.2266 Q43.8656,136.0469 45.4594,136.0469 Q46.3969,136.0469 47.0531,135.7969 Q47.4438,135.6406 47.8656,135.2031 Q48.1313,134.9375 48.2797,134.8594 Q48.4281,134.7813 48.6313,134.7813 Q48.9594,134.7813 49.2172,135.0391 Q49.475,135.2969 49.475,135.6406 Q49.475,135.9844 49.1313,136.3906 Q48.6313,136.9688 47.8344,137.2969 Q46.7563,137.75 45.4594,137.75 Q43.9438,137.75 42.7406,137.125 Q41.7563,136.625 41.0688,135.5547 Q40.3813,134.4844 40.3813,133.2031 L40.3813,132.0469 Q40.3813,130.7188 40.9984,129.5703 Q41.6156,128.4219 42.7094,127.8047 Q43.8031,127.1875 45.0375,127.1875 Q45.7719,127.1875 46.4203,127.3516 Q47.0688,127.5156 47.6156,127.875 Z " /><text fill="#000000" font-family="sans-serif" font-size="12" lengthAdjust="spacingAndGlyphs" textLength="26" x="64.15" y="136.9102">Dino</text>
        <line style="stroke: #A80036; stroke-width: 1.5;" x1="7" x2="116" y1="148" y2="148" /><text fill="#000000" font-family="sans-serif" font-size="11" lengthAdjust="spacingAndGlyphs" textLength="90" x="12" y="163.4189">int bambooCounter</text><text fill="#000000" font-family="sans-serif" font-size="11" lengthAdjust="spacingAndGlyphs" textLength="99" x="12" y="177.2549">int actionCountdown</text><text fill="#000000" font-family="sans-serif" font-size="11" lengthAdjust="spacingAndGlyphs" textLength="16" x="12" y="191.0908">int i</text><text fill="#000000" font-family="sans-serif" font-size="11" lengthAdjust="spacingAndGlyphs" textLength="16" x="12" y="204.9268">int j</text><text fill="#000000" font-family="sans-serif" font-size="11" lengthAdjust="spacingAndGlyphs" textLength="42" x="12" y="218.7627">int score</text>
        <line style="stroke: #A80036; stroke-width: 1.5;" x1="7" x2="116" y1="225.1797" y2="225.1797" /><text fill="#000000" font-family="sans-serif" font-size="11" lengthAdjust="spacingAndGlyphs" textLength="41" x="12" y="240.5986">update()</text><text fill="#000000" font-family="sans-serif" font-size="11" lengthAdjust="spacingAndGlyphs" textLength="40" x="12" y="254.4346">render()</text><text fill="#000000" font-family="sans-serif" font-size="11" lengthAdjust="spacingAndGlyphs" textLength="34" x="12" y="268.2705">move()</text><text fill="#000000" font-family="sans-serif" font-size="11" lengthAdjust="spacingAndGlyphs" textLength="23" x="12" y="282.1064">eat()</text><text fill="#000000" font-family="sans-serif" font-size="11" lengthAdjust="spacingAndGlyphs" textLength="60" x="12" y="295.9424">regurgitate()</text>
        <!--MD5=[1f24f7b92150e3316908f7910ce81742]
class Grid-->
        <rect fill="#FEFECE" filter="url(#fwsci0hej8xk7)" height="89.5078" id="Grid" style="stroke: #A80036; stroke-width: 1.5;" width="66" x="152.5" y="164" />
        <ellipse cx="172.45" cy="180" fill="#ADD1B2" rx="11" ry="11" style="stroke: #A80036; stroke-width: 1.0;" />
        <path d="M175.2156,175.875 Q175.3719,175.6563 175.5594,175.5469 Q175.7469,175.4375 175.9656,175.4375 Q176.3406,175.4375 176.575,175.6953 Q176.8094,175.9531 176.8094,176.5625 L176.8094,178.0156 Q176.8094,178.625 176.575,178.8906 Q176.3406,179.1563 175.9656,179.1563 Q175.6219,179.1563 175.4188,178.9531 Q175.2156,178.7656 175.1063,178.25 Q175.0594,177.8906 174.8719,177.7031 Q174.5438,177.3281 173.9344,177.1094 Q173.325,176.8906 172.7,176.8906 Q171.9344,176.8906 171.3016,177.2188 Q170.6688,177.5469 170.1766,178.2969 Q169.6844,179.0469 169.6844,180.0781 L169.6844,181.1719 Q169.6844,182.4063 170.575,183.2266 Q171.4656,184.0469 173.0594,184.0469 Q173.9969,184.0469 174.6531,183.7969 Q175.0438,183.6406 175.4656,183.2031 Q175.7313,182.9375 175.8797,182.8594 Q176.0281,182.7813 176.2313,182.7813 Q176.5594,182.7813 176.8172,183.0391 Q177.075,183.2969 177.075,183.6406 Q177.075,183.9844 176.7313,184.3906 Q176.2313,184.9688 175.4344,185.2969 Q174.3563,185.75 173.0594,185.75 Q171.5438,185.75 170.3406,185.125 Q169.3563,184.625 168.6688,183.5547 Q167.9813,182.4844 167.9813,181.2031 L167.9813,180.0469 Q167.9813,178.7188 168.5984,177.5703 Q169.2156,176.4219 170.3094,175.8047 Q171.4031,175.1875 172.6375,175.1875 Q173.3719,175.1875 174.0203,175.3516 Q174.6688,175.5156 175.2156,175.875 Z " /><text fill="#000000" font-family="sans-serif" font-size="12" lengthAdjust="spacingAndGlyphs" textLength="23" x="187.55" y="184.9102">Grid</text>
        <line style="stroke: #A80036; stroke-width: 1.5;" x1="153.5" x2="217.5" y1="196" y2="196" /><text fill="#000000" font-family="sans-serif" font-size="11" lengthAdjust="spacingAndGlyphs" textLength="54" x="158.5" y="211.4189">Cell[][] cells</text>
        <line style="stroke: #A80036; stroke-width: 1.5;" x1="153.5" x2="217.5" y1="217.8359" y2="217.8359" /><text fill="#000000" font-family="sans-serif" font-size="11" lengthAdjust="spacingAndGlyphs" textLength="41" x="158.5" y="233.2549">update()</text><text fill="#000000" font-family="sans-serif" font-size="11" lengthAdjust="spacingAndGlyphs" textLength="40" x="158.5" y="247.0908">render()</text>
        <!--MD5=[fea3dc74c7473bae0133d22265a91e2f]
class Cell-->
        <rect fill="#FEFECE" filter="url(#fwsci0hej8xk7)" height="227.8672" id="Cell" style="stroke: #A80036; stroke-width: 1.5;" width="335" x="18" y="362" />
        <ellipse cx="170.25" cy="378" fill="#ADD1B2" rx="11" ry="11" style="stroke: #A80036; stroke-width: 1.0;" />
        <path d="M173.0156,373.875 Q173.1719,373.6563 173.3594,373.5469 Q173.5469,373.4375 173.7656,373.4375 Q174.1406,373.4375 174.375,373.6953 Q174.6094,373.9531 174.6094,374.5625 L174.6094,376.0156 Q174.6094,376.625 174.375,376.8906 Q174.1406,377.1563 173.7656,377.1563 Q173.4219,377.1563 173.2188,376.9531 Q173.0156,376.7656 172.9063,376.25 Q172.8594,375.8906 172.6719,375.7031 Q172.3438,375.3281 171.7344,375.1094 Q171.125,374.8906 170.5,374.8906 Q169.7344,374.8906 169.1016,375.2188 Q168.4688,375.5469 167.9766,376.2969 Q167.4844,377.0469 167.4844,378.0781 L167.4844,379.1719 Q167.4844,380.4063 168.375,381.2266 Q169.2656,382.0469 170.8594,382.0469 Q171.7969,382.0469 172.4531,381.7969 Q172.8438,381.6406 173.2656,381.2031 Q173.5313,380.9375 173.6797,380.8594 Q173.8281,380.7813 174.0313,380.7813 Q174.3594,380.7813 174.6172,381.0391 Q174.875,381.2969 174.875,381.6406 Q174.875,381.9844 174.5313,382.3906 Q174.0313,382.9688 173.2344,383.2969 Q172.1563,383.75 170.8594,383.75 Q169.3438,383.75 168.1406,383.125 Q167.1563,382.625 166.4688,381.5547 Q165.7813,380.4844 165.7813,379.2031 L165.7813,378.0469 Q165.7813,376.7188 166.3984,375.5703 Q167.0156,374.4219 168.1094,373.8047 Q169.2031,373.1875 170.4375,373.1875 Q171.1719,373.1875 171.8203,373.3516 Q172.4688,373.5156 173.0156,373.875 Z " /><text fill="#000000" font-family="sans-serif" font-size="12" lengthAdjust="spacingAndGlyphs" textLength="22" x="190.75" y="382.9102">Cell</text>
        <line style="stroke: #A80036; stroke-width: 1.5;" x1="19" x2="352" y1="394" y2="394" /><text fill="#000000" font-family="sans-serif" font-size="11" lengthAdjust="spacingAndGlyphs" textLength="219" x="24" y="409.4189">int type // 0: Nest, 1: Sand, 2: Grass, 2: Water</text><text fill="#000000" font-family="sans-serif" font-size="11" lengthAdjust="spacingAndGlyphs" textLength="116" x="24" y="423.2549">static Image[2] bamboos</text><text fill="#000000" font-family="sans-serif" font-size="11" lengthAdjust="spacingAndGlyphs" textLength="218" x="24" y="437.0908">static Map&lt;Integer, int[2]&gt; bambooThresholds</text><text fill="#000000" font-family="sans-serif" font-size="11" lengthAdjust="spacingAndGlyphs" textLength="323" x="24" y="450.9268">static Map&lt;Integer, float[3]&gt; bambooSpeedCoefficients // 1, .75, .25</text><text fill="#000000" font-family="sans-serif" font-size="11" lengthAdjust="spacingAndGlyphs" textLength="264" x="24" y="464.7627">static Map&lt;Integer, float[3]&gt; bambooGaugeCoefficients</text><text fill="#000000" font-family="sans-serif" font-size="11" lengthAdjust="spacingAndGlyphs" textLength="261" x="24" y="478.5986">static Map&lt;Integer, float&gt; actionCountdownCoefficient</text><text fill="#000000" font-family="sans-serif" font-size="11" lengthAdjust="spacingAndGlyphs" textLength="80" x="24" y="492.4346">int bambooStage</text><text fill="#000000" font-family="sans-serif" font-size="11" lengthAdjust="spacingAndGlyphs" textLength="84" x="24" y="506.2705">int bambooGauge</text><text fill="#000000" font-family="sans-serif" font-size="11" lengthAdjust="spacingAndGlyphs" textLength="68" x="24" y="520.1064">boolean fertile</text>
        <line style="stroke: #A80036; stroke-width: 1.5;" x1="19" x2="352" y1="526.5234" y2="526.5234" /><text fill="#000000" font-family="sans-serif" font-size="11" lengthAdjust="spacingAndGlyphs" textLength="146" x="24" y="541.9424">int getNextBambooThreshold()</text><text fill="#000000" font-family="sans-serif" font-size="11" lengthAdjust="spacingAndGlyphs" textLength="169" x="24" y="555.7783">float getBambooSpeedCoefficient()</text><text fill="#000000" font-family="sans-serif" font-size="11" lengthAdjust="spacingAndGlyphs" textLength="206" x="24" y="569.6143">float getCurrentBambooGaugeCoefficient()</text><text fill="#000000" font-family="sans-serif" font-size="11" lengthAdjust="spacingAndGlyphs" textLength="186" x="24" y="583.4502">float getActionCountdownCoefficient()</text>
        <!--MD5=[78b37207037e51c84ce1909946a39592]
link World to Dino-->
        <path d="M115.267,56.239 C109.733,71.859 102.0418,93.567 94.205,115.688 " fill="none" id="World-Dino" style="stroke: #A80036; stroke-width: 1.0;" /><text fill="#000000" font-family="sans-serif" font-size="13" lengthAdjust="spacingAndGlyphs" textLength="7" x="105.4071" y="77.6352">0</text><text fill="#000000" font-family="sans-serif" font-size="13" lengthAdjust="spacingAndGlyphs" textLength="7" x="89.5323" y="105.1095">1</text>
        <!--MD5=[2447db2d5398c13e17973605d13e2ad0]
link World to Grid-->
        <path d="M131.733,56.239 C141.417,83.573 157.708,129.556 169.825,163.757 " fill="none" id="World-Grid" style="stroke: #A80036; stroke-width: 1.0;" /><text fill="#000000" font-family="sans-serif" font-size="13" lengthAdjust="spacingAndGlyphs" textLength="7" x="125.8867" y="77.6352">0</text><text fill="#000000" font-family="sans-serif" font-size="13" lengthAdjust="spacingAndGlyphs" textLength="5" x="162.042" y="153.1639">*</text>
        <!--MD5=[d31bdcbbaabb43506266532ce7787e4b]
link Grid to Cell-->
        <path d="M185.5,254.057 C185.5,283.566 185.5,323.845 185.5,361.934 " fill="none" id="Grid-Cell" style="stroke: #A80036; stroke-width: 1.0;" /><text fill="#000000" font-family="sans-serif" font-size="13" lengthAdjust="spacingAndGlyphs" textLength="7" x="178.0078" y="275.0726">0</text><text fill="#000000" font-family="sans-serif" font-size="13" lengthAdjust="spacingAndGlyphs" textLength="5" x="180.332" y="351.2441">*</text>
        <!--MD5=[4eb648017a86d1f60cf447a90a3b3665]
@startuml

class World

class Dino {
	int bambooCounter
	int actionCountdown
	int i
	int j
	int score
	update()
	render()
	move()
	eat()
	regurgitate()
}

class Grid {
	Cell[][] cells
	update()
	render()
}

class Cell {
	int type // 0: Nest, 1: Sand, 2: Grass, 2: Water
	static Image[2] bamboos
	static Map<Integer, int[2]> bambooThresholds
	static Map<Integer, float[3]> bambooSpeedCoefficients // 1, .75, .25
	static Map<Integer, float[3]> bambooGaugeCoefficients
	static Map<Integer, float> actionCountdownCoefficient
	int bambooStage
	int bambooGauge
	boolean fertile
	int getNextBambooThreshold()
	float getBambooSpeedCoefficient()
	float getCurrentBambooGaugeCoefficient()
	float getActionCountdownCoefficient()
}

World "0"- -"1" Dino
World "0"- -"*" Grid

Grid "0"- -"*" Cell

@enduml

PlantUML version 1.2020.10(Sun May 17 11:35:57 CEST 2020)
(GPL source distribution)
Java Runtime: Java(TM) SE Runtime Environment
JVM: Java HotSpot(TM) 64-Bit Server VM
Java Version: 1.8.0_221-b11
Operating System: Windows 10
Default Encoding: Cp1252
Language: fr
Country: FR
-->
    </g>
</svg>